# xmcd
#
# Track frame offsets: 
#        150
#        10177
#        20657
#        31692
#        43550
#        58020
#        67545
#        77822
#        89332
#        100450
#
# Disc length: 1494 seconds
#
# Revision: 0
# Processed by: cddbd v1.4PL0 Copyright (c) Steve Scherf et al.
# Submitted via: ExactAudioCopy v0.90b3
#
DISCID=6f05d40a
DTITLE=Conway Twitty - Classic Country
DYEAR=1999
DGENRE=Country
TTITLE0=It's Only Make Believe
TTITLE1=Halfway To Heaven
TTITLE2=Mona Lisa
TTITLE3=What Am I Living For
TTITLE4=I Need Your Lovin'
TTITLE5=This Road That I Walk
TTITLE6=Midnight
TTITLE7=Have I Been Away Too Long
TTITLE8=Big Town
TTITLE9=Is A Bluebird Blue
EXTD=
EXTT0=
EXTT1=
EXTT2=
EXTT3=
EXTT4=
EXTT5=
EXTT6=
EXTT7=
EXTT8=
EXTT9=
PLAYORDER=
